<svg version="1.1" id="Layer_1" xmlns="http://www.w3.org/2000/svg" xmlns:xlink="http://www.w3.org/1999/xlink" x="0px" y="0px"
	 width="100%" viewBox="0 0 204 192" enable-background="new 0 0 204 192" xml:space="preserve">
<path fill="#FEFFFF" opacity="1.000000" stroke="none" 
	d="
M132.000000,193.000000 
	C88.000000,193.000000 44.500004,193.000000 1.000006,193.000000 
	C1.000004,129.000000 1.000004,65.000015 1.000002,1.000015 
	C68.999992,1.000010 136.999985,1.000010 204.999969,1.000005 
	C204.999985,64.999985 204.999985,128.999969 205.000000,192.999969 
	C180.833328,193.000000 156.666672,193.000000 132.000000,193.000000 
M102.426125,175.647263 
	C102.809135,175.459396 103.192146,175.271530 104.298317,175.379501 
	C106.530174,174.798737 109.028648,174.678741 110.952438,173.565582 
	C129.230072,162.989594 147.446228,152.305664 165.592728,141.506027 
	C170.100067,138.823563 173.011368,134.708618 173.036545,129.268112 
	C173.135162,107.960739 173.185486,86.651749 172.965500,65.346329 
	C172.941986,63.069714 171.033478,60.812565 170.106354,57.869583 
	C168.189987,55.911324 166.593460,53.395752 164.306488,52.083233 
	C146.498398,41.862968 128.563004,31.864260 110.654282,21.819695 
	C104.735245,18.499853 98.581230,19.156605 93.095695,22.258095 
	C75.756996,32.061291 58.588505,42.172256 41.518986,52.438221 
	C38.679768,54.145790 36.665546,57.225109 33.937393,60.525894 
	C33.583797,62.638348 32.930378,64.749741 32.922913,66.863411 
	C32.847088,88.344292 32.943443,109.825912 32.827732,131.306442 
	C32.800129,136.430420 35.119179,139.738083 39.379253,142.116470 
	C57.941338,152.479660 76.460968,162.919403 95.072868,173.192093 
	C97.170448,174.349808 99.754189,174.626709 102.426125,175.647263 
z"/>
<path fill="#3EDC84" opacity="1.000000" stroke="none" 
	d="
M34.270088,59.670540 
	C36.665546,57.225109 38.679768,54.145790 41.518986,52.438221 
	C58.588505,42.172256 75.756996,32.061291 93.095695,22.258095 
	C98.581230,19.156605 104.735245,18.499853 110.654282,21.819695 
	C128.563004,31.864260 146.498398,41.862968 164.306488,52.083233 
	C166.593460,53.395752 168.189987,55.911324 169.688919,58.310539 
	C160.889359,63.585682 152.507233,68.419861 143.871567,73.210648 
	C143.446655,73.160805 143.275299,73.154366 142.950104,72.826080 
	C142.479172,72.119789 142.238724,71.600365 141.833862,71.370514 
	C129.572449,64.409363 117.352425,57.369968 104.945900,50.676491 
	C103.416962,49.851612 100.489609,50.231327 98.870956,51.180038 
	C86.157059,58.631840 73.604187,66.358368 60.656116,73.932655 
	C51.630390,69.133568 42.950241,64.402054 34.270088,59.670540 
z"/>
<path fill="#4285F4" opacity="1.000000" stroke="none" 
	d="
M144.125107,73.254044 
	C152.507233,68.419861 160.889359,63.585682 169.635437,58.648941 
	C171.033478,60.812565 172.941986,63.069714 172.965500,65.346329 
	C173.185486,86.651749 173.135162,107.960739 173.036545,129.268112 
	C173.011368,134.708618 170.100067,138.823563 165.592728,141.506027 
	C147.446228,152.305664 129.230072,162.989594 110.952438,173.565582 
	C109.028648,174.678741 106.530174,174.798737 103.785408,175.177933 
	C103.272499,174.976364 102.961067,174.898117 103.040115,174.443756 
	C103.203911,164.349564 103.288666,154.709702 103.727081,145.047729 
	C106.495102,143.950027 109.026764,143.077621 111.303314,141.763321 
	C120.620781,136.384155 129.805817,130.774384 139.151779,125.446259 
	C143.808456,122.791489 146.027359,119.081871 145.979370,113.730095 
	C145.879593,102.604591 146.052979,91.475838 145.866531,80.352570 
	C145.826721,77.977325 144.733200,75.619759 144.125107,73.254044 
z"/>
<path fill="#093042" opacity="1.000000" stroke="none" 
	d="
M34.103745,60.098217 
	C42.950241,64.402054 51.630390,69.133568 60.669071,74.140640 
	C61.027603,74.416199 61.058090,74.831879 61.030235,75.313004 
	C60.992027,89.398720 60.777023,103.008911 61.147797,116.603111 
	C61.220036,119.251823 62.882076,122.908478 64.990898,124.263023 
	C72.890114,129.336868 81.227417,133.744034 89.506035,138.205276 
	C93.532913,140.375320 97.793076,142.112457 101.961929,144.511154 
	C101.992996,154.906326 102.009773,164.835907 101.988510,174.911499 
	C101.950470,175.057495 102.112488,175.312057 102.112488,175.312057 
	C99.754189,174.626709 97.170448,174.349808 95.072868,173.192093 
	C76.460968,162.919403 57.941338,152.479660 39.379253,142.116470 
	C35.119179,139.738083 32.800129,136.430420 32.827732,131.306442 
	C32.943443,109.825912 32.847088,88.344292 32.922913,66.863411 
	C32.930378,64.749741 33.583797,62.638348 34.103745,60.098217 
z"/>
<path fill="#3A72B4" opacity="1.000000" stroke="none" 
	d="
M103.423828,175.030014 
	C103.192146,175.271530 102.809135,175.459396 102.269302,175.479660 
	C102.112488,175.312057 101.950470,175.057495 102.217674,174.974701 
	C102.484879,174.891922 102.961067,174.898117 102.961067,174.898117 
	C102.961067,174.898117 103.272499,174.976364 103.423828,175.030014 
z"/>
<path fill="#3A72B4" opacity="1.000000" stroke="none" 
	d="
M143.871567,73.210648 
	C144.733200,75.619759 145.826721,77.977325 145.866531,80.352570 
	C146.052979,91.475838 145.879593,102.604591 145.979370,113.730095 
	C146.027359,119.081871 143.808456,122.791489 139.151779,125.446259 
	C129.805817,130.774384 120.620781,136.384155 111.303314,141.763321 
	C109.026764,143.077621 106.495102,143.950027 103.615768,144.783630 
	C103.089798,144.360580 103.028816,144.179535 103.043045,143.539490 
	C102.739838,138.671661 102.361420,134.262848 102.145332,129.584534 
	C103.436493,129.126129 104.730667,129.230209 105.667747,128.701462 
	C112.550125,124.817978 119.511505,121.037186 126.109467,116.708107 
	C128.294479,115.274475 129.485886,112.326477 131.207062,109.600517 
	C131.204834,100.744972 131.127121,92.359772 131.083160,83.624130 
	C130.939072,82.597771 130.761230,81.921844 130.925323,81.096100 
	C135.212799,78.346825 139.158371,75.747383 143.103928,73.147934 
	C143.275299,73.154366 143.446655,73.160805 143.871567,73.210648 
z"/>
<path fill="#38BF6F" opacity="1.000000" stroke="none" 
	d="
M142.950104,72.826080 
	C139.158371,75.747383 135.212799,78.346825 130.669342,80.888046 
	C121.758072,75.970566 113.455635,71.092323 105.110451,66.288353 
	C104.447853,65.906921 103.343956,65.703140 102.689507,65.984726 
	C92.731094,70.269554 82.626213,74.345863 74.972794,82.752571 
	C74.661041,82.449966 74.637337,82.247955 74.225327,81.938675 
	C73.595551,81.713814 73.354095,81.596214 72.885300,81.249481 
	C68.791328,78.957520 64.924706,76.894699 61.058090,74.831879 
	C61.058090,74.831879 61.027603,74.416199 61.014648,74.208221 
	C73.604187,66.358368 86.157059,58.631840 98.870956,51.180038 
	C100.489609,50.231327 103.416962,49.851612 104.945900,50.676491 
	C117.352425,57.369968 129.572449,64.409363 141.833862,71.370514 
	C142.238724,71.600365 142.479172,72.119789 142.950104,72.826080 
z"/>
<path fill="#002423" opacity="1.000000" stroke="none" 
	d="
M102.967842,143.998505 
	C103.028816,144.179535 103.089798,144.360580 103.262100,144.805756 
	C103.288666,154.709702 103.203911,164.349564 103.040115,174.443756 
	C102.961067,174.898117 102.484879,174.891922 102.255714,174.828705 
	C102.009773,164.835907 101.992996,154.906326 102.217056,144.494263 
	C102.627876,144.007355 102.797859,144.002930 102.967842,143.998505 
z"/>
<path fill="#051719" opacity="1.000000" stroke="none" 
	d="
M103.043045,143.539490 
	C102.797859,144.002930 102.627876,144.007355 102.202759,144.028687 
	C97.793076,142.112457 93.532913,140.375320 89.506035,138.205276 
	C81.227417,133.744034 72.890114,129.336868 64.990898,124.263023 
	C62.882076,122.908478 61.220036,119.251823 61.147797,116.603111 
	C60.777023,103.008911 60.992027,89.398720 61.030235,75.313004 
	C64.924706,76.894699 68.791328,78.957520 72.875977,81.631744 
	C73.467270,82.844604 73.840530,83.446053 74.332886,84.500313 
	C74.358437,93.943672 74.264885,102.934219 73.921906,112.078094 
	C74.077827,112.829697 74.483162,113.427986 75.191254,114.214737 
	C76.119438,115.150650 76.597076,116.168076 77.393143,116.603851 
	C85.560150,121.074669 93.778778,125.451187 101.983002,129.854019 
	C102.361420,134.262848 102.739838,138.671661 103.043045,143.539490 
z"/>
<path fill="#D5EFFE" opacity="1.000000" stroke="none" 
	d="
M102.145332,129.584534 
	C93.778778,125.451187 85.560150,121.074669 77.393143,116.603851 
	C76.597076,116.168076 76.119438,115.150650 75.161331,113.956306 
	C74.871323,113.341263 74.913994,113.173111 75.262619,112.717865 
	C75.465988,102.571564 75.363411,92.712364 75.260834,82.853157 
	C82.626213,74.345863 92.731094,70.269554 102.689507,65.984726 
	C103.343956,65.703140 104.447853,65.906921 105.110451,66.288353 
	C113.455635,71.092323 121.758072,75.970566 130.327408,81.037872 
	C130.761230,81.921844 130.939072,82.597771 130.776276,83.913696 
	C130.290009,90.688568 130.026199,96.824059 130.058380,102.957993 
	C130.070831,105.330757 130.753983,107.700012 131.131577,110.070862 
	C129.485886,112.326477 128.294479,115.274475 126.109467,116.708107 
	C119.511505,121.037186 112.550125,124.817978 105.667747,128.701462 
	C104.730667,129.230209 103.436493,129.126129 102.145332,129.584534 
z"/>
<path fill="#E2FCFF" opacity="1.000000" stroke="none" 
	d="
M131.207062,109.600525 
	C130.753983,107.700012 130.070831,105.330757 130.058380,102.957993 
	C130.026199,96.824059 130.290009,90.688568 130.742508,84.264130 
	C131.127121,92.359772 131.204834,100.744972 131.207062,109.600525 
z"/>
<path fill="#E2FDFF" opacity="1.000000" stroke="none" 
	d="
M74.972794,82.752571 
	C75.363411,92.712364 75.465988,102.571564 75.082741,112.576691 
	C74.532257,112.415474 74.390396,112.149529 74.171326,111.924774 
	C74.264885,102.934219 74.358437,93.943672 74.506271,84.193054 
	C74.578255,82.970642 74.595947,82.508286 74.613640,82.045937 
	C74.637337,82.247955 74.661041,82.449966 74.972794,82.752571 
z"/>
<path fill="#000B0F" opacity="1.000000" stroke="none" 
	d="
M74.225327,81.938675 
	C74.595947,82.508286 74.578255,82.970642 74.387177,83.740250 
	C73.840530,83.446053 73.467270,82.844604 73.103325,81.860886 
	C73.354095,81.596214 73.595551,81.713814 74.225327,81.938675 
z"/>
<path fill="#000B0F" opacity="1.000000" stroke="none" 
	d="
M73.921913,112.078094 
	C74.390396,112.149529 74.532257,112.415474 74.776794,112.863785 
	C74.913994,113.173111 74.871323,113.341263 74.858582,113.767838 
	C74.483162,113.427986 74.077827,112.829697 73.921913,112.078094 
z"/>
</svg>